<svg width="218" height="75" viewBox="0 0 218 75" fill="none" xmlns="http://www.w3.org/2000/svg">
<path d="M3.55256 70.2727V25.2727H13.8651V30.8764H14.1847C14.6108 29.8821 15.2145 28.9233 15.9957 28C16.7912 27.0767 17.7997 26.3239 19.0213 25.7415C20.2571 25.1449 21.7344 24.8466 23.4531 24.8466C25.7259 24.8466 27.8494 25.4432 29.8239 26.6364C31.8125 27.8295 33.4176 29.669 34.6392 32.1548C35.8608 34.6406 36.4716 37.8082 36.4716 41.6577C36.4716 45.3651 35.8821 48.4688 34.7031 50.9688C33.5384 53.4688 31.9616 55.3438 29.973 56.5938C27.9986 57.8438 25.804 58.4688 23.3892 58.4688C21.7415 58.4688 20.3139 58.1989 19.1065 57.6591C17.8991 57.1193 16.8835 56.4091 16.0597 55.5284C15.25 54.6477 14.625 53.7031 14.1847 52.6946H13.9716V70.2727H3.55256ZM13.7585 41.6364C13.7585 43.3977 13.9929 44.9318 14.4616 46.2386C14.9446 47.5455 15.6335 48.5611 16.5284 49.2855C17.4375 49.9957 18.5241 50.3509 19.7884 50.3509C21.0668 50.3509 22.1534 49.9957 23.0483 49.2855C23.9432 48.5611 24.6179 47.5455 25.0724 46.2386C25.5412 44.9318 25.7756 43.3977 25.7756 41.6364C25.7756 39.875 25.5412 38.348 25.0724 37.0554C24.6179 35.7628 23.9432 34.7614 23.0483 34.0511C22.1676 33.3409 21.081 32.9858 19.7884 32.9858C18.5099 32.9858 17.4233 33.3338 16.5284 34.0298C15.6335 34.7259 14.9446 35.7202 14.4616 37.0128C13.9929 38.3054 13.7585 39.8466 13.7585 41.6364ZM52.3505 14.3636V58H41.9315V14.3636H52.3505ZM68.2081 58.554C66.12 58.554 64.2663 58.206 62.647 57.5099C61.0419 56.7997 59.7706 55.7344 58.8331 54.3139C57.9098 52.8793 57.4482 51.0824 57.4482 48.9233C57.4482 47.1051 57.7678 45.571 58.407 44.321C59.0462 43.071 59.9268 42.0554 61.049 41.2741C62.1712 40.4929 63.4638 39.9034 64.9268 39.5057C66.3899 39.0937 67.9524 38.8168 69.6143 38.6747C71.4751 38.5043 72.9737 38.3267 74.1101 38.142C75.2464 37.9432 76.0703 37.6662 76.5817 37.3111C77.1072 36.9418 77.37 36.4233 77.37 35.7557V35.6491C77.37 34.5554 76.9936 33.7102 76.2408 33.1136C75.4879 32.517 74.4723 32.2188 73.1939 32.2188C71.8161 32.2188 70.7081 32.517 69.87 33.1136C69.032 33.7102 68.4993 34.5341 68.272 35.5852L58.6626 35.2443C58.9467 33.2557 59.6783 31.4801 60.8572 29.9176C62.0504 28.3409 63.6839 27.1051 65.7578 26.2102C67.8459 25.3011 70.353 24.8466 73.2791 24.8466C75.3672 24.8466 77.2919 25.0952 79.0533 25.5923C80.8146 26.0753 82.3487 26.7855 83.6555 27.723C84.9624 28.6463 85.9709 29.7827 86.6811 31.1321C87.4055 32.4815 87.7678 34.0227 87.7678 35.7557V58H77.9666V53.4403H77.7109C77.1286 54.5483 76.3828 55.4858 75.4737 56.2528C74.5788 57.0199 73.5206 57.5952 72.299 57.9787C71.0916 58.3622 69.728 58.554 68.2081 58.554ZM71.4254 51.7358C72.5476 51.7358 73.5561 51.5085 74.451 51.054C75.3601 50.5994 76.0845 49.9744 76.6243 49.179C77.1641 48.3693 77.4339 47.4318 77.4339 46.3665V43.2557C77.1357 43.4119 76.7734 43.554 76.3473 43.6818C75.9354 43.8097 75.4808 43.9304 74.9837 44.044C74.4865 44.1577 73.9751 44.2571 73.4496 44.3423C72.924 44.4276 72.4197 44.5057 71.9368 44.5767C70.9567 44.733 70.1186 44.9744 69.4226 45.3011C68.7408 45.6278 68.2152 46.054 67.8459 46.5795C67.4908 47.0909 67.3132 47.7017 67.3132 48.4119C67.3132 49.4915 67.6967 50.3153 68.4638 50.8835C69.245 51.4517 70.2322 51.7358 71.4254 51.7358ZM131.276 14.3636V58H122.327L104.962 32.8153H104.685V58H94.1385V14.3636H103.215L120.388 39.5057H120.751V14.3636H131.276ZM164.307 14.3636H174.833V42.5099C174.833 45.7628 174.059 48.5966 172.51 51.0114C170.962 53.4119 168.803 55.2727 166.033 56.5938C163.263 57.9006 160.046 58.554 156.381 58.554C152.674 58.554 149.435 57.9006 146.665 56.5938C143.895 55.2727 141.743 53.4119 140.209 51.0114C138.675 48.5966 137.908 45.7628 137.908 42.5099V14.3636H148.455V41.5938C148.455 43.0994 148.782 44.4418 149.435 45.6207C150.103 46.7997 151.033 47.723 152.226 48.3906C153.419 49.0582 154.804 49.392 156.381 49.392C157.958 49.392 159.336 49.0582 160.515 48.3906C161.708 47.723 162.638 46.7997 163.306 45.6207C163.973 44.4418 164.307 43.0994 164.307 41.5938V14.3636ZM205.03 27.446C204.888 25.8835 204.256 24.669 203.134 23.8026C202.026 22.9219 200.442 22.4815 198.382 22.4815C197.018 22.4815 195.882 22.6591 194.973 23.0142C194.064 23.3693 193.382 23.8594 192.928 24.4844C192.473 25.0952 192.239 25.7983 192.224 26.5938C192.196 27.2472 192.324 27.8224 192.608 28.3196C192.906 28.8168 193.332 29.2571 193.886 29.6406C194.455 30.0099 195.136 30.3366 195.932 30.6207C196.727 30.9048 197.622 31.1534 198.616 31.3665L202.366 32.2188C204.526 32.6875 206.429 33.3125 208.077 34.0938C209.739 34.875 211.131 35.8054 212.253 36.8849C213.389 37.9645 214.249 39.2074 214.831 40.6136C215.413 42.0199 215.712 43.5966 215.726 45.3438C215.712 48.0994 215.016 50.4645 213.638 52.4389C212.26 54.4134 210.278 55.9261 207.693 56.9773C205.122 58.0284 202.018 58.554 198.382 58.554C194.732 58.554 191.55 58.0071 188.837 56.9134C186.124 55.8196 184.014 54.1577 182.509 51.9276C181.003 49.6974 180.229 46.8778 180.186 43.4688H190.286C190.371 44.875 190.747 46.0469 191.415 46.9844C192.082 47.9219 192.999 48.6321 194.163 49.1151C195.342 49.598 196.706 49.8395 198.254 49.8395C199.675 49.8395 200.882 49.6477 201.876 49.2642C202.885 48.8807 203.659 48.348 204.199 47.6662C204.739 46.9844 205.016 46.2031 205.03 45.3224C205.016 44.4986 204.76 43.7955 204.263 43.2131C203.766 42.6165 202.999 42.1051 201.962 41.679C200.939 41.2386 199.632 40.8338 198.041 40.4645L193.482 39.3991C189.703 38.5327 186.727 37.1335 184.554 35.2017C182.381 33.2557 181.301 30.6278 181.315 27.3182C181.301 24.6193 182.026 22.2543 183.489 20.223C184.952 18.1918 186.976 16.608 189.561 15.4716C192.146 14.3352 195.094 13.767 198.403 13.767C201.784 13.767 204.717 14.3423 207.203 15.4929C209.703 16.6293 211.642 18.2273 213.02 20.2869C214.398 22.3466 215.101 24.733 215.129 27.446H205.03Z" fill="black"/>
<line x1="3.55005" y1="70" x2="137.55" y2="70" stroke="black" stroke-width="10"/>
</svg>
